<svg xmlns="http://www.w3.org/2000/svg" viewBox="0 0 64 64" fill="none">
  <rect width="64" height="64" rx="16" fill="#155966"/>
  <path
    d="M20 18C20 15.7909 21.7909 14 24 14H44C46.2091 14 48 15.7909 48 18V42C48 44.2091 46.2091 46 44 46H31.5L24.5 52.5C23.1999 53.7072 21 52.7853 21 51.0123V46H24C26.2091 46 28 44.2091 28 42V18H20Z"
    fill="#F4F8FA"
  />
  <path
    d="M20 18C20 15.7909 21.7909 14 24 14H40C42.2091 14 44 15.7909 44 18V38C44 40.2091 42.2091 42 40 42H30L22.75 48.5C21.4595 49.6572 19.375 48.7413 19.375 47.0123V42.625C17.6004 42.3264 16.25 40.7814 16.25 38.9375V18C16.25 15.7909 18.0409 14 20.25 14H20Z"
    fill="#155966"
  />
  <path
    d="M25.293 35L31.1114 21.9091H33.8887L39.7171 35H36.749L35.4951 32.0156H29.4843L28.2305 35H25.293ZM30.6278 29.4901H34.3515L32.5206 25.1186H32.4496L30.6278 29.4901Z"
    fill="#F4F8FA"
  />
</svg>
